#!OML:ASF F:\VICON\USERDATA\INSTALL\Justin_Nancy\Justin_Nancy.ASF
:FULLY-SPECIFIED
:DEGREES
224
root -0.376907 17.2003 30.7934 1.65037 1.65125 -1.45007
lowerback 5.79948 -0.490588 -0.514407
upperback -0.212483 -0.590825 2.80367
thorax -3.43882 -0.260497 3.24009
lowerneck -18.1428 -3.32159 -10.8537
upperneck 17.1453 -2.79724 5.80023
head 8.57867 -1.43107 3.39679
rclavicle 3.37934e-015 -1.03368e-014
rhumerus -38.5196 -21.8029 -73.3589
rradius 31.093
rwrist 8.57406
rhand -16.9244 11.0908
rfingers 7.12502
rthumb 9.3083 -18.6837
lclavicle 3.37934e-015 -1.03368e-014
lhumerus -35.0281 7.38696 82.6199
lradius 53.326
lwrist -5.03192
lhand -20.4268 20.244
lfingers 7.12502
lthumb 5.92781 50.1411
rfemur -12.52 1.59057 20.6363
rtibia 32.2462
rfoot -16.2423 -9.12222
rtoes 5.61361
lfemur -14.1011 -2.40753 -21.127
ltibia 35.1882
lfoot -17.653 5.79776
ltoes 4.70044
225
root -0.382881 17.1941 30.8033 1.64556 1.74674 -1.37248
lowerback 5.84958 -0.551765 -0.54321
upperback -0.252009 -0.673164 2.80223
thorax -3.5027 -0.299966 3.26336
lowerneck -18.0651 -3.24871 -10.8466
upperneck 17.1688 -2.68911 5.70881
head 8.56199 -1.39071 3.37854
rclavicle -6.4605e-015 1.19271e-014
rhumerus -38.5686 -21.3463 -73.4857
rradius 31.2776
rwrist 8.1757
rhand -16.7884 11.1158
rfingers 7.12502
rthumb 9.43954 -18.6528
lclavicle -6.4605e-015 1.19271e-014
lhumerus -35.1448 7.11953 82.7545
lradius 53.1633
lwrist -5.22122
lhand -20.1433 19.8656
lfingers 7.12502
lthumb 6.20149 49.7548
rfemur -12.3479 1.43646 20.5741
rtibia 32.0864
rfoot -16.2535 -9.12522
rtoes 5.96911
lfemur -14.0426 -2.71206 -21.2486
ltibia 35.2111
lfoot -17.7912 6.05724
ltoes 5.09057
226
root -0.39507 17.1989 30.7993 1.69097 1.67455 -1.39889
lowerback 6.10646 -0.563592 -0.556399
upperback -0.381867 -0.683685 2.8292
thorax -3.78083 -0.300501 3.30643
lowerneck -17.9737 -3.14804 -10.8907
upperneck 17.3018 -2.55189 5.70779
head 8.57934 -1.33281 3.40534
rclavicle 2.05742e-014 -4.21423e-014
rhumerus -38.6961 -21.0255 -73.5887
rradius 31.4975
rwrist 8.11631
rhand -16.6833 11.3765
rfingers 7.12502
rthumb 9.54094 -18.3875
lclavicle 2.05742e-014 -4.21423e-014
lhumerus -35.3757 6.85355 82.8294
lradius 52.9566
lwrist -5.40225
lhand -19.9016 19.0813
lfingers 7.12502
lthumb 6.43478 48.9635
rfemur -12.3407 1.81638 20.6725
rtibia 31.9359
rfoot -16.197 -9.25892
rtoes 6.21942
lfemur -14.1393 -3.08041 -21.2198
ltibia 35.2515
lfoot -17.7686 6.55754
ltoes 5.21011
227
root -0.417217 17.2068 30.8027 1.5552 1.3759 -1.51386
lowerback 6.36693 -0.467144 -0.63408
upperback -0.403915 -0.555381 2.89375
thorax -3.95711 -0.232231 3.41067
lowerneck -17.9306 -3.112 -10.9259
upperneck 17.5505 -2.50317 5.70735
head 8.65253 -1.31754 3.4211
rclavicle -3.8266e-015 8.74653e-015
rhumerus -38.7954 -20.9284 -73.6079
rradius 31.6383
rwrist 8.34955
rhand -16.8479 11.972
rfingers 7.12502
rthumb 9.38209 -17.7992
lclavicle -3.8266e-015 8.74653e-015
lhumerus -35.3321 6.69428 82.9174
lradius 52.3693
lwrist -5.75626
lhand -19.449 17.8164
lfingers 7.12502
lthumb 6.8717 47.6849
rfemur -12.2003 2.78064 20.9434
rtibia 31.8165
rfoot -16.0035 -9.79475
rtoes 6.47549
lfemur -14.0198 -3.41677 -21.0395
ltibia 35.3136
lfoot -17.8132 7.12935
ltoes 5.5085
228
root -0.44059 17.2084 30.8072 1.34504 1.14838 -1.74659
lowerback 6.53173 -0.394538 -0.579136
upperback -0.308507 -0.451129 2.98291
thorax -3.95735 -0.181484 3.46394
lowerneck -18.0487 -3.10156 -10.8682
upperneck 17.8114 -2.47617 5.61245
head 8.75836 -1.31433 3.38594
rclavicle -5.96354e-016 1.11319e-014
rhumerus -38.7986 -20.6473 -73.758
rradius 31.8743
rwrist 8.30714
rhand -17.2469 12.7963
rfingers 7.12502
rthumb 8.99711 -16.9918
lclavicle -5.96354e-016 1.11319e-014
lhumerus -35.1199 6.62296 83.0196
lradius 51.7343
lwrist -5.94377
lhand -19.2763 18.3988
lfingers 7.12502
lthumb 7.03847 48.2618
rfemur -11.9888 3.60181 21.349
rtibia 31.7469
rfoot -15.6697 -10.4023
rtoes 6.51298
lfemur -13.8056 -3.43705 -20.6898
ltibia 35.3823
lfoot -17.7529 7.31196
ltoes 4.98497
229
root -0.447722 17.2092 30.8046 1.31345 1.12719 -1.85757
lowerback 6.66527 -0.410478 -0.431957
upperback -0.430928 -0.454424 3.03167
thorax -4.16042 -0.182355 3.43581
lowerneck -17.7121 -2.9814 -10.7172
upperneck 17.9591 -2.33214 5.32472
head 8.73117 -1.27382 3.28273
rclavicle 6.80837e-015 -1.27222e-014
rhumerus -39.0205 -20.4554 -73.671
rradius 31.9999
rwrist 8.35328
rhand -17.3593 13.3524
rfingers 7.12502
rthumb 8.88859 -16.4404
lclavicle 6.80837e-015 -1.27222e-014
lhumerus -35.4133 6.55412 83.1606
lradius 51.27
lwrist -5.85626
lhand -18.5367 20.0536
lfingers 7.12502
lthumb 7.75239 49.8915
rfemur -11.9671 3.60662 21.4955
rtibia 31.7426
rfoot -15.4831 -10.3753
rtoes 6.40559
lfemur -13.791 -3.2297 -20.5117
ltibia 35.4362
lfoot -17.666 7.11791
ltoes 4.35494
230
root -0.448917 17.2096 30.8062 1.314 1.09656 -2.01691
lowerback 6.80494 -0.419346 -0.117038
upperback -0.656475 -0.432142 3.05088
thorax -4.47753 -0.173269 3.28109
lowerneck -17.1703 -2.87307 -10.555
upperneck 18.0368 -2.23041 5.04502
head 8.64755 -1.25216 3.17445
rclavicle -2.70844e-015 -1.19271e-014
rhumerus -39.2794 -20.5665 -73.4059
rradius 31.7242
rwrist 8.41673
rhand -17.3405 13.0755
rfingers 7.12502
rthumb 8.90678 -16.7165
lclavicle -2.70844e-015 -1.19271e-014
lhumerus -35.8947 6.48187 83.2619
lradius 50.856
lwrist -5.86312
lhand -17.949 21.19
lfingers 7.12502
lthumb 8.31952 51.0062
rfemur -12.0101 3.34692 21.6371
rtibia 31.8126
rfoot -15.6611 -9.8419
rtoes 5.48515
lfemur -13.7922 -3.16524 -20.3186
ltibia 35.468
lfoot -17.5862 7.1166
ltoes 4.34947
231
root -0.454033 17.2083 30.8163 1.39483 0.875932 -2.01555
lowerback 6.68291 -0.371146 -0.059606
upperback -0.709033 -0.363096 3.06666
thorax -4.46762 -0.139936 3.25677
lowerneck -17.0666 -2.80168 -10.4632
upperneck 18.0008 -2.12772 4.85927
head 8.60547 -1.21738 3.1079
rclavicle -4.19933e-015 -1.51076e-014
rhumerus -39.1788 -20.6459 -73.2657
rradius 31.4922
rwrist 8.48214
rhand -17.0801 12.8325
rfingers 7.12502
rthumb 9.15806 -16.9486
lclavicle -4.19933e-015 -1.51076e-014
lhumerus -35.8718 6.79945 83.34
lradius 50.0465
lwrist -6.0376
lhand -18.0588 19.9168
lfingers 7.12502
lthumb 8.21358 49.7371
rfemur -12.1482 3.35798 21.618
rtibia 31.8853
rfoot -15.8491 -9.38365
rtoes 4.95543
lfemur -13.8032 -3.14302 -20.2789
ltibia 35.4827
lfoot -17.6764 7.17787
ltoes 5.06698
232
root -0.459488 17.2035 30.8374 1.43236 0.746647 -1.78561
lowerback 6.40221 -0.371895 -0.27106
upperback -0.595859 -0.389838 3.03286
thorax -4.18861 -0.152228 3.33782
lowerneck -17.2105 -2.72339 -10.4684
upperneck 17.89 -1.9965 4.8425
head 8.58233 -1.15385 3.11767
rclavicle 5.1684e-015 -1.35174e-014
rhumerus -38.7397 -20.7699 -73.267
rradius 31.2327
rwrist 8.72467
rhand -16.8817 12.7183
rfingers 7.12502
rthumb 9.34949 -17.0543
lclavicle 5.1684e-015 -1.35174e-014
lhumerus -35.5405 7.33496 83.388
lradius 48.9114
lwrist -6.22992
lhand -18.6466 18.4564
lfingers 7.12502
lthumb 7.64631 48.2982
rfemur -12.1111 3.09308 21.3625
rtibia 31.9364
rfoot -16.0203 -9.04523
rtoes 4.90085
lfemur -13.7057 -3.13878 -20.5121
ltibia 35.4643
lfoot -17.7798 7.22811
ltoes 5.03126
233
root -0.464042 17.2021 30.8621 1.34436 0.652584 -1.84467
lowerback 6.11205 -0.397505 -0.176463
upperback -0.442249 -0.424114 3.05596
thorax -3.86384 -0.175528 3.30511
lowerneck -17.2192 -2.63913 -10.4813
upperneck 17.8536 -1.88827 4.90309
head 8.56278 -1.09655 3.15379
rclavicle 2.5842e-015 -8.74653e-015
rhumerus -38.3982 -21.0501 -73.1806
rradius 30.9271
rwrist 8.97794
rhand -16.6112 12.6317
rfingers 7.12502
rthumb 9.61047 -17.1291
lclavicle 2.5842e-015 -8.74653e-015
lhumerus -35.4184 7.66811 83.4436
lradius 48.0634
lwrist -6.18006
lhand -18.9209 18.2474
lfingers 7.12502
lthumb 7.38154 48.0986
rfemur -11.8974 2.8557 21.4358
rtibia 31.9358
rfoot -16.1247 -8.84598
rtoes 4.54266
lfemur -13.4641 -3.11085 -20.43
ltibia 35.4349
lfoot -17.8879 7.19313
ltoes 5.2026
234
root -0.470772 17.2126 30.8711 1.36072 0.467386 -1.94997
lowerback 5.8403 -0.365965 -0.0311512
upperback -0.327938 -0.378777 3.06289
thorax -3.59574 -0.159116 3.22057
lowerneck -17.1336 -2.62109 -10.5242
upperneck 17.786 -1.89101 5.04508
head 8.52595 -1.08549 3.20857
rclavicle -4.17448e-015 -1.19271e-014
rhumerus -38.213 -21.3192 -73.1146
rradius 30.7902
rwrist 9.18429
rhand -16.7152 12.9074
rfingers 7.12502
rthumb 9.51013 -16.858
lclavicle -4.17448e-015 -1.19271e-014
lhumerus -35.2642 8.18792 83.4225
lradius 47.159
lwrist -6.31499
lhand -18.6461 18.6255
lfingers 7.12502
lthumb 7.64677 48.4672
rfemur -11.9377 2.9785 21.5902
rtibia 31.8707
rfoot -15.9694 -8.84815
rtoes 4.6643
lfemur -13.3942 -3.30193 -20.3151
ltibia 35.4031
lfoot -17.851 7.51735
ltoes 5.18765
235
root -0.476684 17.2225 30.8729 1.38791 0.340639 -2.04695
lowerback 5.64538 -0.336326 0.130478
upperback -0.198655 -0.335533 3.05301
thorax -3.35554 -0.143477 3.11101
lowerneck -17.3589 -2.69427 -10.5687
upperneck 17.9805 -1.99239 5.2081
head 8.6424 -1.12065 3.26226
rclavicle -6.36111e-015 3.97569e-015
rhumerus -38.0129 -21.4858 -73.1606
rradius 30.8841
rwrist 9.19425
rhand -16.667 12.9023
rfingers 7.12502
rthumb 9.55663 -16.861
lclavicle -6.36111e-015 3.97569e-015
lhumerus -34.9933 8.74139 83.3983
lradius 46.2481
lwrist -6.44351
lhand -17.779 20.3961
lfingers 7.12502
lthumb 8.48361 50.2057
rfemur -11.9803 3.16844 21.7401
rtibia 31.736
rfoot -15.7648 -8.92507
rtoes 5.07858
lfemur -13.3927 -3.48806 -20.2119
ltibia 35.3887
lfoot -17.7664 7.79513
ltoes 4.81914
236
root -0.481157 17.226 30.8834 1.37443 0.266787 -2.18526
lowerback 5.30417 -0.333857 0.314238
upperback -0.0163494 -0.332027 3.06417
thorax -2.97646 -0.148457 3.01227
lowerneck -17.4359 -2.70043 -10.4232
upperneck 17.897 -2.0307 5.21166
head 8.6288 -1.1257 3.23345
rclavicle 1.37161e-014 -1.74931e-014
rhumerus -37.8395 -21.6107 -73.2902
rradius 31.2186
rwrist 9.04963
rhand -16.3449 12.0386
rfingers 7.12502
rthumb 9.8674 -17.7102
lclavicle 1.37161e-014 -1.74931e-014
lhumerus -34.7139 9.20751 83.4151
lradius 45.3685
lwrist -6.27418
lhand -17.074 21.6881
lfingers 7.12502
lthumb 9.16396 51.469
rfemur -11.8775 3.24525 21.9196
rtibia 31.6141
rfoot -15.7913 -8.87737
rtoes 5.84954
lfemur -13.3066 -3.56839 -20.0614
ltibia 35.3649
lfoot -17.7846 7.952
ltoes 4.60382
237
root -0.485468 17.226 30.8945 1.31067 0.178909 -2.22424
lowerback 5.07132 -0.340215 0.391909
upperback 0.146329 -0.345346 3.07342
thorax -2.67758 -0.158984 2.97459
lowerneck -17.4204 -2.66888 -10.2505
upperneck 17.65 -2.01342 5.1291
head 8.53747 -1.10981 3.17513
rclavicle 9.24349e-015 2.62396e-014
rhumerus -37.6266 -21.6116 -73.4247
rradius 31.51
rwrist 8.77201
rhand -16.1407 11.6454
rfingers 7.12502
rthumb 10.0644 -18.0939
lclavicle 9.24349e-015 2.62396e-014
lhumerus -34.6197 9.68426 83.4745
lradius 44.7541
lwrist -6.08957
lhand -16.5853 22.5131
lfingers 7.12502
lthumb 9.63543 52.2727
rfemur -11.7273 3.32917 21.985
rtibia 31.5914
rfoot -15.9652 -8.8373
rtoes 6.36043
lfemur -13.1253 -3.60929 -20.0253
ltibia 35.3123
lfoot -17.7813 8.12741
ltoes 4.0772
238
root -0.489825 17.2239 30.9045 1.26385 -0.0735707 -2.16113
lowerback 4.99006 -0.321559 0.355339
upperback 0.169747 -0.325738 3.05129
thorax -2.60869 -0.149478 2.9697
lowerneck -17.2827 -2.59486 -10.1678
upperneck 17.6369 -1.95294 5.14898
head 8.50226 -1.07497 3.17597
rclavicle -2.78299e-015 1.98785e-014
rhumerus -37.5177 -21.4378 -73.5317
rradius 31.4964
rwrist 8.58289
rhand -16.0805 12.1228
rfingers 7.12502
rthumb 10.1225 -17.6137
lclavicle -2.78299e-015 1.98785e-014
lhumerus -34.667 10.2009 83.4403
lradius 44.066
lwrist -6.02745
lhand -16.0126 23.0691
lfingers 7.12502
lthumb 10.188 52.8024
rfemur -11.6142 3.41639 21.9283
rtibia 31.5562
rfoot -16.0054 -8.73014
rtoes 6.34599
lfemur -12.9633 -3.64536 -20.1022
ltibia 35.272
lfoot -17.7619 8.33392
ltoes 4.55985
